<?xml version="1.0" encoding="UTF-8"?>
<svg xmlns="http://www.w3.org/2000/svg" xmlns:xlink="http://www.w3.org/1999/xlink" width="64pt" height="32pt" viewBox="0 0 64 32" version="1.1">
<g id="surface1">
<rect x="0" y="0" width="64" height="32" style="fill:rgb(85.490196%,12.54902%,19.607843%);fill-opacity:1;stroke:none;"/>
<path style=" stroke:none;fill-rule:nonzero;fill:rgb(0%,40%,70.196078%);fill-opacity:1;" d="M 21.332031 0 L 42.667969 0 L 42.667969 32 L 21.332031 32 Z M 21.332031 0 "/>
<path style=" stroke:none;fill-rule:nonzero;fill:rgb(100%,85.098039%,0%);fill-opacity:1;" d="M 4.800781 14.398438 L 7.464844 14.398438 L 7.464844 27.199219 L 4.800781 27.199219 Z M 13.867188 14.398438 L 16.535156 14.398438 L 16.535156 27.199219 L 13.867188 27.199219 Z M 8 25.601562 L 10.667969 27.199219 L 13.332031 25.601562 Z M 8 24 L 13.332031 24 L 13.332031 25.066406 L 8 25.066406 Z M 8 14.398438 L 10.667969 16 L 13.332031 14.398438 Z M 8 16.535156 L 13.332031 16.535156 L 13.332031 17.601562 L 8 17.601562 Z M 11.933594 18.457031 C 12.132812 18.726562 12.238281 19.050781 12.238281 19.386719 C 12.238281 20.253906 11.535156 20.960938 10.667969 20.960938 C 9.972656 20.960938 9.414062 21.519531 9.414062 22.214844 C 9.414062 22.90625 9.976562 23.464844 10.667969 23.464844 C 12.140625 23.464844 13.332031 22.273438 13.332031 20.800781 C 13.332031 19.820312 12.792969 18.921875 11.933594 18.457031 Z M 10.667969 21.679688 C 10.960938 21.679688 11.199219 21.917969 11.199219 22.214844 C 11.199219 22.507812 10.960938 22.746094 10.667969 22.746094 C 10.371094 22.746094 10.132812 22.507812 10.132812 22.214844 C 10.132812 21.917969 10.371094 21.679688 10.667969 21.679688 Z M 10.667969 21.679688 "/>
<path style=" stroke:none;fill-rule:nonzero;fill:rgb(100%,85.098039%,0%);fill-opacity:1;" d="M 9.398438 23.144531 C 9.203125 22.875 9.09375 22.546875 9.09375 22.214844 C 9.09375 21.34375 9.796875 20.640625 10.667969 20.640625 C 11.359375 20.640625 11.917969 20.078125 11.917969 19.386719 C 11.917969 18.695312 11.359375 18.132812 10.667969 18.132812 C 9.195312 18.132812 8 19.328125 8 20.800781 C 8 21.777344 8.539062 22.679688 9.398438 23.144531 Z M 10.667969 19.917969 C 10.371094 19.917969 10.132812 19.679688 10.132812 19.386719 C 10.132812 19.09375 10.371094 18.851562 10.667969 18.851562 C 10.960938 18.851562 11.199219 19.09375 11.199219 19.386719 C 11.199219 19.679688 10.960938 19.917969 10.667969 19.917969 Z M 7.738281 10.875 C 7.738281 10.894531 7.734375 10.914062 7.734375 10.933594 C 7.734375 12.554688 9.046875 13.867188 10.667969 13.867188 C 12.285156 13.867188 13.601562 12.554688 13.601562 10.933594 C 13.601562 10.914062 13.601562 10.898438 13.601562 10.878906 C 13.089844 12.046875 11.941406 12.800781 10.667969 12.800781 C 9.394531 12.796875 8.246094 12.042969 7.738281 10.875 Z M 7.738281 10.875 "/>
<path style=" stroke:none;fill-rule:nonzero;fill:rgb(100%,85.098039%,0%);fill-opacity:1;" d="M 12.800781 10.132812 C 12.800781 11.3125 11.847656 12.265625 10.667969 12.265625 C 9.492188 12.265625 8.535156 11.3125 8.535156 10.132812 C 8.535156 8.957031 9.492188 8 10.667969 8 C 11.847656 8 12.800781 8.957031 12.800781 10.132812 Z M 12.800781 10.132812 "/>
<path style=" stroke:none;fill-rule:nonzero;fill:rgb(100%,85.098039%,0%);fill-opacity:1;" d="M 10.890625 3.199219 C 10.625 3.320312 10.527344 3.539062 10.503906 3.753906 C 10.492188 3.9375 10.574219 4.140625 10.582031 4.320312 C 10.582031 4.625 10.261719 4.726562 10.261719 5.160156 C 10.261719 5.3125 10.402344 5.476562 10.402344 5.867188 C 10.378906 6.070312 10.265625 6.117188 10.136719 6.132812 C 9.988281 6.132812 9.867188 6.015625 9.867188 5.867188 C 9.871094 5.800781 9.894531 5.734375 9.941406 5.683594 C 9.953125 5.675781 9.960938 5.664062 9.96875 5.65625 C 10.03125 5.597656 10.113281 5.570312 10.113281 5.410156 C 10.113281 5.328125 10.058594 5.25 10.007812 5.105469 C 9.960938 4.960938 9.996094 4.722656 10.109375 4.582031 C 9.925781 4.652344 9.808594 4.832031 9.75 4.992188 C 9.6875 5.191406 9.742188 5.304688 9.65625 5.46875 C 9.605469 5.574219 9.542969 5.617188 9.484375 5.707031 C 9.417969 5.804688 9.335938 6.027344 9.335938 6.132812 C 9.335938 6.871094 9.933594 7.464844 10.667969 7.464844 C 11.40625 7.464844 12.003906 6.871094 12.003906 6.132812 C 12.003906 6.027344 11.921875 5.804688 11.851562 5.707031 C 11.792969 5.617188 11.730469 5.574219 11.679688 5.46875 C 11.597656 5.304688 11.652344 5.191406 11.589844 4.992188 C 11.53125 4.832031 11.414062 4.652344 11.226562 4.582031 C 11.34375 4.722656 11.378906 4.960938 11.332031 5.105469 C 11.277344 5.25 11.222656 5.328125 11.222656 5.410156 C 11.222656 5.570312 11.308594 5.597656 11.367188 5.65625 C 11.378906 5.664062 11.386719 5.675781 11.394531 5.683594 C 11.441406 5.734375 11.46875 5.800781 11.46875 5.867188 C 11.46875 6.015625 11.347656 6.132812 11.203125 6.132812 C 11.054688 6.117188 10.949219 6.046875 10.9375 5.867188 C 10.9375 5.355469 11.15625 5.320312 11.15625 4.941406 C 11.15625 4.398438 10.667969 4.140625 10.667969 3.746094 C 10.667969 3.609375 10.699219 3.382812 10.890625 3.199219 Z M 10.890625 3.199219 "/>
</g>
</svg>
